<svg width="19" height="18" viewBox="0 0 19 18" fill="none" xmlns="http://www.w3.org/2000/svg">
<path d="M17.1565 12.375C17.4377 12.375 17.6721 12.4688 17.8596 12.6562C18.0471 12.8438 18.1408 13.0781 18.1408 13.3594V16.8281C18.1408 17.6094 17.8127 18 17.1565 18C12.5002 18 8.50022 16.3281 5.15647 12.9844C1.81272 9.64062 0.140847 5.64062 0.140847 0.984375C0.140847 0.328125 0.531472 0 1.31272 0H4.78147C5.06272 0 5.2971 0.09375 5.4846 0.28125C5.6721 0.46875 5.76585 0.703125 5.76585 0.984375C5.76585 2.20312 5.95335 3.375 6.32835 4.5C6.45335 4.90625 6.37522 5.25 6.09397 5.53125L4.1721 7.21875C5.6096 10.2188 7.90647 12.4844 11.0627 14.0156L12.6096 12.0469C12.7971 11.8594 13.0315 11.7656 13.3127 11.7656C13.469 11.7656 13.5783 11.7812 13.6408 11.8125C14.7658 12.1875 15.9377 12.375 17.1565 12.375Z" fill="#14142B"/>
</svg>
